<?xml version="1.0" encoding="UTF-8" standalone="no"?>
<!-- Created with Inkscape (http://www.inkscape.org/) -->

<svg
   width="210mm"
   height="297mm"
   viewBox="0 0 210 297"
   version="1.1"
   id="svg1"
   inkscape:version="1.4.2 (f4327f4, 2025-05-13)"
   sodipodi:docname="icon.svg"
   inkscape:export-filename="logo_dark.png"
   inkscape:export-xdpi="96"
   inkscape:export-ydpi="96"
   xmlns:inkscape="http://www.inkscape.org/namespaces/inkscape"
   xmlns:sodipodi="http://sodipodi.sourceforge.net/DTD/sodipodi-0.dtd"
   xmlns="http://www.w3.org/2000/svg"
   xmlns:svg="http://www.w3.org/2000/svg">
  <sodipodi:namedview
     id="namedview1"
     pagecolor="#ffffff"
     bordercolor="#000000"
     borderopacity="0"
     inkscape:showpageshadow="2"
     inkscape:pageopacity="0.0"
     inkscape:pagecheckerboard="true"
     inkscape:deskcolor="#d1d1d1"
     inkscape:document-units="mm"
     showguides="false"
     inkscape:zoom="0.67370203"
     inkscape:cx="475.7296"
     inkscape:cy="572.21143"
     inkscape:window-width="1920"
     inkscape:window-height="991"
     inkscape:window-x="2391"
     inkscape:window-y="-9"
     inkscape:window-maximized="1"
     inkscape:current-layer="text15-8">
    <sodipodi:guide
       position="84.831708,189.61624"
       orientation="0,-1"
       id="guide1"
       inkscape:locked="false" />
    <sodipodi:guide
       position="83.062983,207.46458"
       orientation="0,-1"
       id="guide2"
       inkscape:locked="false" />
    <sodipodi:guide
       position="131.07877,161.75264"
       orientation="1,0"
       id="guide15"
       inkscape:locked="false" />
    <sodipodi:guide
       position="108.79002,156.70986"
       orientation="1,0"
       id="guide17"
       inkscape:locked="false" />
    <sodipodi:guide
       position="124.60611,161.75264"
       orientation="0,-1"
       id="guide24"
       inkscape:locked="false" />
    <sodipodi:guide
       position="126.64148,148.9906"
       orientation="0,-1"
       id="guide25"
       inkscape:locked="false" />
    <sodipodi:guide
       position="145.1929,157.5097"
       orientation="1,0"
       id="guide32"
       inkscape:locked="false" />
    <sodipodi:guide
       position="127.12791,163.39251"
       orientation="0,-1"
       id="guide33"
       inkscape:locked="false" />
    <sodipodi:guide
       position="145.81048,165.14142"
       orientation="1,0"
       id="guide35"
       inkscape:locked="false" />
    <sodipodi:guide
       position="131.7661,165.80219"
       orientation="0,-1"
       id="guide37"
       inkscape:locked="false" />
    <sodipodi:guide
       position="99.368398,159.79808"
       orientation="0,-1"
       id="guide38"
       inkscape:locked="false" />
  </sodipodi:namedview>
  <defs
     id="defs1">
    <inkscape:path-effect
       effect="fillet_chamfer"
       id="path-effect41"
       is_visible="true"
       lpeversion="1"
       nodesatellites_param="F,0,0,1,0,0,0,1 @ F,0,0,1,0,0,0,1 @ F,0,0,1,0,0,0,1 @ F,0,0,1,0,0,0,1 @ F,0,0,1,0,0,0,1 @ F,0,0,1,0,0,0,1 @ F,0,0,1,0,0,0,1 @ F,0,0,1,0,0,0,1 @ F,0,0,1,0,0,0,1 @ F,0,0,1,0,0,0,1"
       radius="0"
       unit="px"
       method="auto"
       mode="F"
       chamfer_steps="1"
       flexible="false"
       use_knot_distance="true"
       apply_no_radius="true"
       apply_with_radius="true"
       only_selected="false"
       hide_knots="false" />
    <rect
       x="221.79575"
       y="559.62354"
       width="293.67401"
       height="147.86384"
       id="rect14" />
    <rect
       x="190.99079"
       y="373.76692"
       width="350.14978"
       height="237.19824"
       id="rect1" />
  </defs>
  <g
     inkscape:label="Layer 1"
     inkscape:groupmode="layer"
     id="layer1">
    <g
       id="g37"
       style="display:none">
      <path
         id="text1"
         style="font-stretch:condensed;font-size:85.3333px;line-height:0;font-family:Impact;-inkscape-font-specification:'Impact Condensed';text-align:center;letter-spacing:-9.1px;word-spacing:0px;text-anchor:middle;white-space:pre;stroke-width:3.93827"
         transform="matrix(0.65564044,0,0,0.29258614,-122.6323,-10.390689)"
         d="m 392.70508,341.5293 c -1.7269,-0.0244 -3.0907,0.16054 -3.79883,0.47265 -0.95588,0.42131 -1.54942,0.863 -2.25195,1.5 -1.79864,1.0286 -4.09021,0.19047 -4.80078,-1.75586 h -10.54297 l -7.08203,23.81641 c -1.09856,3.69757 -6.54982,2.9042 -6.54883,-0.95312 v -22.86329 h -9.09766 -5.09961 -29.89062 v 6.8125 h 7.03125 c 1.84672,-6e-5 3.34381,1.49703 3.34375,3.34375 1.55392,16.87109 -2.23474,50.50282 4.66175,50.61328 h 9.81952 c -6.26305,1.14794 -2.74958,-32.55725 -3.6258,-50.61328 -6e-5,-1.84672 1.49703,-3.34381 3.34375,-3.34375 h 5.3164 c 11.93781,-6e-5 9.21234,35.65462 4.49675,53.95703 h 9.70052 v -25.57226 c -0.002,-3.95461 5.65334,-4.63657 6.59179,-0.79492 l 9.53559,26.36718 h 9.40387 c 0.83453,-1.48872 2.65631,-2.11001 4.22656,-1.4414 0.96796,0.61329 1.0584,0.76022 0.57422,0.49023 2.06461,1.15274 5.72839,0.95117 11.07812,0.95117 5.08845,0 8.44984,0.0939 10.63086,-1.33007 0.004,-0.003 0.008,-0.005 0.0117,-0.008 2.94418,-1.90649 4.5022,-3.86599 5.18555,-5.91601 0.003,-0.009 0.007,-0.0182 0.01,-0.0273 0.70426,-2.05408 1.24117,-6.66497 1.28711,-13.03126 H 405.3928 v 5.11524 c 0,3.79738 0.0871,5.95056 -0.87305,8.2832 -0.86083,2.15777 -3.48887,3.60156 -5.63672,3.60156 -2.17988,0 -4.87378,-1.40479 -5.74023,-3.63281 -0.83551,-2.14843 -0.8125,-4.21652 -0.8125,-7.62695 v -31.33398 c 0,-3.54395 -0.0215,-5.67654 0.80078,-7.84961 0.43696,-1.15482 1.36079,-2.26575 2.47266,-2.88868 1.11186,-0.62292 2.28608,-0.8125 3.40429,-0.8125 1.01385,0 2.08365,0.15884 3.12696,0.70703 1.02096,0.53648 1.90936,1.5185 2.37109,2.57032 0.53817,1.1785 0.61623,2.06774 0.72656,3.27148 0.11224,1.22452 0.16016,2.68897 0.16016,4.46094 v 8.40625 h 10.85351 v -3.07227 c 0,-6.11945 -0.58304,-10.53037 -1.38867,-12.79882 -10e-4,-0.003 -0.003,-0.007 -0.004,-0.01 -0.764,-2.17137 -2.31771,-4.03334 -5.17969,-5.73633 -2.11707,-1.25974 -5.73702,-1.11133 -11.08399,-1.11133 -2.12514,0 -4.15857,-0.19248 -5.88476,-0.21679 z m -12.35938,6.55078 c 2.00422,2.38577 1.40555,9.66902 1.40555,14.11328 v 16.42187 c 0.67474,20.09929 1.45969,23.90039 -6.82352,0.95313 l -2.90039,-9.75586 c -0.19454,-0.65404 -0.18431,-1.35194 0.0293,-2 l 3.01367,-9.14062 c 0.51821,-1.56924 3.6461,-10.86827 5.27539,-10.5918 z"
         sodipodi:nodetypes="cscccccccccccccccccccccccccsccscccscsssssssscssccsscsscccscccccc" />
    </g>
    <rect
       style="font-size:22.5778px;line-height:0;font-family:'DejaVu Sans Mono';-inkscape-font-specification:'DejaVu Sans Mono';text-align:center;letter-spacing:-4.26244px;word-spacing:0px;text-anchor:middle;white-space:pre;inline-size:25.0542;display:none;fill:#ffffff;fill-opacity:1;stroke:none;stroke-width:0.333859"
       id="rect41"
       width="47.579308"
       height="134.57022"
       x="111.40516"
       y="73.498085"
       ry="0.44124624"
       transform="matrix(4.4136837,0,0,2.207026,-491.70712,-162.21218)" />
    <g
       id="text15"
       style="font-size:22.5778px;line-height:0;font-family:'DejaVu Sans Mono';-inkscape-font-specification:'DejaVu Sans Mono';text-align:center;letter-spacing:-4.26244px;word-spacing:0px;text-anchor:middle;display:none;stroke-width:1.042"
       aria-label="TKC">
      <path
         style="font-style:oblique;-inkscape-font-specification:'DejaVu Sans Mono Oblique'"
         d="m 85.083951,133.48151 h 12.567721 l -0.363802,1.87413 h -5.170405 l -2.822225,14.58517 h -2.248961 l 2.844274,-14.58517 h -5.170405 z"
         id="path18" />
      <path
         style="font-style:oblique;font-size:19.7556px;-inkscape-font-specification:'DejaVu Sans Mono Oblique'"
         d="m 95.016699,135.5389 h 1.948551 l -1.225079,6.24115 7.157549,-6.24115 h 2.45015 l -6.781336,5.97105 4.128616,8.43086 h -2.11254 l -3.472666,-7.1479 -1.861734,1.62058 -1.080384,5.52732 h -1.958197 z"
         id="path19"
         sodipodi:nodetypes="ccccccccccccc" />
      <path
         style="font-size:16.9333px"
         d="m 108.79003,149.5026 q -0.63666,0.33899 -1.30638,0.50436 -0.66973,0.17363 -1.42213,0.17363 -2.37298,0 -3.68763,-1.67845 -1.30638,-1.67845 -1.30638,-4.72115 0,-3.02616 1.31465,-4.71288 1.32291,-1.69498 3.67936,-1.69498 0.7524,0 1.42213,0.17363 0.66972,0.16536 1.30638,0.50436 v 1.71152 q -0.61185,-0.50436 -1.31465,-0.76894 -0.7028,-0.26459 -1.41386,-0.26459 -1.62884,0 -2.43913,1.25677 -0.81028,1.25677 -0.81028,3.79511 0,2.53008 0.81028,3.78684 0.81029,1.25677 2.43913,1.25677 0.7276,0 1.42213,-0.26458 0.7028,-0.26458 1.30638,-0.76894 z"
         id="path20" />
    </g>
    <g
       id="text15-8"
       style="font-size:22.5778px;line-height:0;font-family:'DejaVu Sans Mono';-inkscape-font-specification:'DejaVu Sans Mono';text-align:center;letter-spacing:-4.26244px;word-spacing:0px;text-anchor:middle;white-space:pre;inline-size:25.0542;stroke-width:0.0166609;stroke-dasharray:none"
       aria-label="TKC"
       transform="matrix(9.2804767,0,0,4.6406257,-1156.0966,-507.34376)">
      <g
         id="text15-8-7"
         style="font-size:22.5778px;line-height:0;font-family:'DejaVu Sans Mono';-inkscape-font-specification:'DejaVu Sans Mono';text-align:center;letter-spacing:-4.26244px;word-spacing:0px;text-anchor:middle;white-space:pre;inline-size:25.0542;stroke-width:0.0168272;stroke-dasharray:none"
         aria-label="TKC"
         transform="matrix(2.5069105,0,0,2.5069105,-187.80179,-215.07203)">
        <path
           id="path28-9"
           style="font-style:oblique;font-size:19.7556px;-inkscape-font-specification:'DejaVu Sans Mono Oblique';fill:#26f2ff;fill-opacity:1;stroke:#ffffff;stroke-width:0.0491873;stroke-dasharray:none;stroke-opacity:0.66;paint-order:normal"
           d="m 125.97265,134.08116 -1.36718,1.16689 h 5.49774 l -3.46259,14.17023 1.96876,-1.40851 2.46874,-12.76172 h 14.0427 l 2.25672,-1.16208 z"
           sodipodi:nodetypes="ccccccccc" />
      </g>
      <path
         id="path28"
         style="font-style:oblique;font-size:19.7556px;-inkscape-font-specification:'DejaVu Sans Mono Oblique';display:inline;fill:#f9fafb;fill-opacity:1;stroke:#ffffff;stroke-width:0.204432;stroke-dasharray:none;stroke-opacity:1;paint-order:markers stroke fill"
         d="m 128.35876,121.60002 -2.81382,2.39243 h 13.17397 c 0.17849,0 0.30949,0.16733 0.26702,0.34035 l -8.59473,35.07264 4.29737,-3.06332 6.22599,-32.1277 c 0.0257,-0.12955 0.13971,-0.22281 0.27197,-0.22205 h 36.02235 l 4.44136,-2.38259 z"
         sodipodi:nodetypes="ccscccccccc" />
      <path
         style="display:none;fill:#ffffff;fill-opacity:1;stroke:none;stroke-width:0.0166609;stroke-dasharray:none"
         d="m 129.99899,135.89259 h 1.30686 l 0.0676,0.40166 h -1.54014 z"
         id="path41"
         sodipodi:nodetypes="ccccc" />
    </g>
    <g
       id="text15-8-1"
       style="font-size:22.5778px;line-height:0;font-family:'DejaVu Sans Mono';-inkscape-font-specification:'DejaVu Sans Mono';text-align:center;letter-spacing:-4.26244px;word-spacing:0px;text-anchor:middle;display:none;stroke-width:1.042"
       aria-label="TKC">
      <path
         style="font-style:oblique;font-size:19.7556px;-inkscape-font-specification:'DejaVu Sans Mono Oblique'"
         d="m 154.96185,141.50996 h 10.99677 l -0.31833,1.63986 h -4.52411 l -2.46945,12.76205 h -1.96784 l 2.48874,-12.76205 h -4.52411 z"
         id="path35" />
      <path
         style="font-style:oblique;font-size:16.9333px;-inkscape-font-specification:'DejaVu Sans Mono Oblique';letter-spacing:-2.96863px"
         d="m 163.07146,143.56742 h 1.67017 l -1.05006,5.34954 6.13502,-5.34954 h 2.10012 l -5.81255,5.11803 3.53879,7.22642 h -1.81074 l -2.97655,-6.12675 -1.59577,1.38906 -0.92604,4.73769 h -1.67844 z"
         id="path36" />
    </g>
  </g>
</svg>
